<svg width="41" height="42" viewBox="0 0 41 42" fill="none" xmlns="http://www.w3.org/2000/svg">
<path fill-rule="evenodd" clip-rule="evenodd" d="M20.711 26.6571C17.6516 26.6571 15.1616 24.1631 15.1616 21.0918C15.1616 18.0226 17.6516 15.5285 20.711 15.5285C23.7674 15.5285 26.2549 18.0226 26.2549 21.0918C26.2549 24.1631 23.7674 26.6571 20.711 26.6571ZM20.711 16.9706C18.4427 16.9706 16.5999 18.82 16.5999 21.0918C16.5999 23.3636 18.4427 25.2147 20.711 25.2147C22.9739 25.2147 24.8166 23.3636 24.8166 21.0918C24.8166 18.82 22.9739 16.9706 20.711 16.9706ZM18.2938 41.1888C17.965 41.1888 17.6779 40.9627 17.5969 40.6436L16.3597 35.6809C15.3965 35.3825 14.4464 34.9767 13.5276 34.4756L9.12676 37.1254C8.84493 37.2953 8.48223 37.2485 8.24977 37.0188L4.83045 33.5882C4.59808 33.3558 4.55375 32.9932 4.72338 32.7094L7.36496 28.302C6.87433 27.39 6.48011 26.4411 6.18788 25.4637L1.21261 24.2167C0.894276 24.137 0.667236 23.8463 0.667236 23.5187V18.6747C0.667236 18.3423 0.894276 18.0534 1.21261 17.9753L6.15911 16.7368C6.46187 15.7606 6.86642 14.8075 7.36234 13.8923L4.72085 9.47749C4.55121 9.19303 4.59567 8.82897 4.82783 8.59573L8.24199 5.17279C8.47694 4.93748 8.83969 4.88895 9.12168 5.06508L13.5224 7.71128C14.4281 7.22464 15.3756 6.82565 16.3492 6.5338L17.5916 1.54389C17.6725 1.22304 17.9597 0.997192 18.2887 0.997192H23.1201C23.4489 0.997192 23.7386 1.22304 23.817 1.54389L25.0543 6.51044C26.0253 6.81351 26.9754 7.21787 27.8837 7.70772L32.2896 5.0565C32.5663 4.89458 32.9319 4.93748 33.1669 5.16747L36.5809 8.59067C36.8158 8.82391 36.8602 9.18682 36.6905 9.47304L34.0489 13.8923C34.5345 14.798 34.9286 15.7476 35.221 16.7184L40.2013 17.9702C40.5223 18.0484 40.7468 18.339 40.7468 18.6694V23.5095C40.7468 23.839 40.5223 24.1302 40.2013 24.2075L35.221 25.4586C34.9286 26.439 34.5345 27.388 34.0515 28.2878L36.6957 32.7038C36.8653 32.9897 36.821 33.3529 36.5862 33.5858L33.1719 37.0164C32.9371 37.2485 32.5742 37.2881 32.2948 37.1254L27.8889 34.4732C26.9806 34.9702 26.0304 35.371 25.0569 35.6776L23.8248 40.6406C23.7439 40.9603 23.4568 41.1855 23.1253 41.1855L18.2938 41.1888ZM13.5147 32.9219C13.6373 32.9219 13.7625 32.9533 13.8746 33.0184C14.9293 33.6282 16.0334 34.0961 17.1532 34.4084C17.4012 34.4786 17.5916 34.6807 17.6568 34.9314L18.8577 39.7464L22.5641 39.7435L23.7623 34.9264C23.8248 34.678 24.0153 34.4786 24.2633 34.4084C25.3989 34.0887 26.5003 33.6202 27.5418 33.0166C27.7688 32.8828 28.0456 32.8873 28.2701 33.0199L32.5508 35.6001L35.174 32.9648L32.603 28.6758C32.4671 28.4497 32.4671 28.1694 32.5952 27.9418C33.1876 26.9141 33.6418 25.8165 33.9498 24.6725C34.0177 24.4212 34.2161 24.2258 34.4691 24.1631L39.3085 22.9456V19.2321L34.4691 18.0164C34.2161 17.9548 34.0177 17.7586 33.9498 17.5058C33.6443 16.3727 33.1876 15.2698 32.5952 14.2336C32.4671 14.0098 32.4699 13.7304 32.603 13.5036L35.1687 9.21375L32.548 6.5862L28.2675 9.16166C28.0456 9.29691 27.7688 9.30316 27.5393 9.1676C26.4951 8.56436 25.3935 8.09668 24.2609 7.7761C24.0128 7.70772 23.8223 7.50998 23.7595 7.2587L22.559 2.43929H18.8525L17.6438 7.28712C17.5814 7.53902 17.3855 7.74028 17.135 7.80747C15.9995 8.1171 14.9006 8.5747 13.867 9.16905C13.6425 9.30316 13.3657 9.30017 13.1387 9.16166L8.86321 6.58796L6.24257 9.21938L8.80838 13.5036C8.94413 13.7304 8.94413 14.0098 8.81376 14.2359C8.21068 15.2891 7.74087 16.3967 7.42494 17.5292C7.35447 17.7811 7.15611 17.972 6.9055 18.035L2.1055 19.2377V22.953L6.93947 24.1681C7.1927 24.2309 7.39102 24.4271 7.45887 24.679C7.7668 25.8147 8.22118 26.9164 8.81892 27.9539C8.94929 28.1812 8.94676 28.4615 8.81092 28.6856L6.2452 32.9698L8.86837 35.6024L13.1439 33.0264C13.2588 32.9568 13.3866 32.9219 13.5147 32.9219Z" fill="url(#paint0_linear)"/>
<path fill-rule="evenodd" clip-rule="evenodd" d="M20.711 26.6571C17.6516 26.6571 15.1616 24.1631 15.1616 21.0918C15.1616 18.0226 17.6516 15.5285 20.711 15.5285C23.7674 15.5285 26.2549 18.0226 26.2549 21.0918C26.2549 24.1631 23.7674 26.6571 20.711 26.6571ZM20.711 16.9706C18.4427 16.9706 16.5999 18.82 16.5999 21.0918C16.5999 23.3636 18.4427 25.2147 20.711 25.2147C22.9739 25.2147 24.8166 23.3636 24.8166 21.0918C24.8166 18.82 22.9739 16.9706 20.711 16.9706ZM18.2938 41.1888C17.965 41.1888 17.6779 40.9627 17.5969 40.6436L16.3597 35.6809C15.3965 35.3825 14.4464 34.9767 13.5276 34.4756L9.12676 37.1254C8.84493 37.2953 8.48223 37.2485 8.24977 37.0188L4.83045 33.5882C4.59808 33.3558 4.55375 32.9932 4.72338 32.7094L7.36496 28.302C6.87433 27.39 6.48011 26.4411 6.18788 25.4637L1.21261 24.2167C0.894276 24.137 0.667236 23.8463 0.667236 23.5187V18.6747C0.667236 18.3423 0.894276 18.0534 1.21261 17.9753L6.15911 16.7368C6.46187 15.7606 6.86642 14.8075 7.36234 13.8923L4.72085 9.47749C4.55121 9.19303 4.59567 8.82897 4.82783 8.59573L8.24199 5.17279C8.47694 4.93748 8.83969 4.88895 9.12168 5.06508L13.5224 7.71128C14.4281 7.22464 15.3756 6.82565 16.3492 6.5338L17.5916 1.54389C17.6725 1.22304 17.9597 0.997192 18.2887 0.997192H23.1201C23.4489 0.997192 23.7386 1.22304 23.817 1.54389L25.0543 6.51044C26.0253 6.81351 26.9754 7.21787 27.8837 7.70772L32.2896 5.0565C32.5663 4.89458 32.9319 4.93748 33.1669 5.16747L36.5809 8.59067C36.8158 8.82391 36.8602 9.18682 36.6905 9.47304L34.0489 13.8923C34.5345 14.798 34.9286 15.7476 35.221 16.7184L40.2013 17.9702C40.5223 18.0484 40.7468 18.339 40.7468 18.6694V23.5095C40.7468 23.839 40.5223 24.1302 40.2013 24.2075L35.221 25.4586C34.9286 26.439 34.5345 27.388 34.0515 28.2878L36.6957 32.7038C36.8653 32.9897 36.821 33.3529 36.5862 33.5858L33.1719 37.0164C32.9371 37.2485 32.5742 37.2881 32.2948 37.1254L27.8889 34.4732C26.9806 34.9702 26.0304 35.371 25.0569 35.6776L23.8248 40.6406C23.7439 40.9603 23.4568 41.1855 23.1253 41.1855L18.2938 41.1888ZM13.5147 32.9219C13.6373 32.9219 13.7625 32.9533 13.8746 33.0184C14.9293 33.6282 16.0334 34.0961 17.1532 34.4084C17.4012 34.4786 17.5916 34.6807 17.6568 34.9314L18.8577 39.7464L22.5641 39.7435L23.7623 34.9264C23.8248 34.678 24.0153 34.4786 24.2633 34.4084C25.3989 34.0887 26.5003 33.6202 27.5418 33.0166C27.7688 32.8828 28.0456 32.8873 28.2701 33.0199L32.5508 35.6001L35.174 32.9648L32.603 28.6758C32.4671 28.4497 32.4671 28.1694 32.5952 27.9418C33.1876 26.9141 33.6418 25.8165 33.9498 24.6725C34.0177 24.4212 34.2161 24.2258 34.4691 24.1631L39.3085 22.9456V19.2321L34.4691 18.0164C34.2161 17.9548 34.0177 17.7586 33.9498 17.5058C33.6443 16.3727 33.1876 15.2698 32.5952 14.2336C32.4671 14.0098 32.4699 13.7304 32.603 13.5036L35.1687 9.21375L32.548 6.5862L28.2675 9.16166C28.0456 9.29691 27.7688 9.30316 27.5393 9.1676C26.4951 8.56436 25.3935 8.09668 24.2609 7.7761C24.0128 7.70772 23.8223 7.50998 23.7595 7.2587L22.559 2.43929H18.8525L17.6438 7.28712C17.5814 7.53902 17.3855 7.74028 17.135 7.80747C15.9995 8.1171 14.9006 8.5747 13.867 9.16905C13.6425 9.30316 13.3657 9.30017 13.1387 9.16166L8.86321 6.58796L6.24257 9.21938L8.80838 13.5036C8.94413 13.7304 8.94413 14.0098 8.81376 14.2359C8.21068 15.2891 7.74087 16.3967 7.42494 17.5292C7.35447 17.7811 7.15611 17.972 6.9055 18.035L2.1055 19.2377V22.953L6.93947 24.1681C7.1927 24.2309 7.39102 24.4271 7.45887 24.679C7.7668 25.8147 8.22118 26.9164 8.81892 27.9539C8.94929 28.1812 8.94676 28.4615 8.81092 28.6856L6.2452 32.9698L8.86837 35.6024L13.1439 33.0264C13.2588 32.9568 13.3866 32.9219 13.5147 32.9219Z" fill="#FF3B4A"/>
<defs>
<linearGradient id="paint0_linear" x1="21.1625" y1="-18.6419" x2="-19.0264" y2="20.5241" gradientUnits="userSpaceOnUse">
<stop stop-color="white"/>
<stop offset="1" stop-color="white"/>
</linearGradient>
</defs>
</svg>
