<svg width="36" height="38" viewBox="0 0 36 38" fill="none" xmlns="http://www.w3.org/2000/svg">
<path fill-rule="evenodd" clip-rule="evenodd" d="M35.6628 13.0667C34.7217 10.2529 33.3319 7.71034 31.5287 5.5081C29.7363 3.31954 27.5903 1.5465 25.1479 0.238497C24.8733 0.0925774 24.5442 0.144377 24.3185 0.377017L8.63062 16.3386L6.81914 18.1821C6.72126 18.2691 6.63694 18.3855 6.58525 18.5267C6.57722 18.5474 6.56897 18.5752 6.56068 18.5997L2.34233 30.8096L0.541891 36.0263C0.438509 36.3214 0.498376 36.6526 0.688826 36.8891C0.832785 37.0652 1.0342 37.1581 1.24077 37.1581C1.30885 37.1581 1.37957 37.149 1.44761 37.125L6.27243 35.6009L17.6196 32.0137C17.6903 31.9921 17.7611 31.9569 17.8263 31.9107C17.8616 31.8832 17.897 31.853 17.9295 31.8228L19.7818 29.9376L35.4669 13.9751C35.6926 13.7454 35.7689 13.3849 35.6628 13.0667ZM3.44118 32.273C3.47102 32.2949 3.50643 32.3079 3.53654 32.3254C3.85727 32.5501 4.15653 32.7981 4.40398 33.1042C4.65147 33.4067 4.84735 33.7595 5.0187 34.1339C5.03784 34.1677 5.04582 34.2097 5.05942 34.2473L2.47834 35.0646L3.44118 32.273ZM17.0458 30.4586L6.53902 33.7799C6.50911 33.7077 6.45749 33.6535 6.42486 33.5828C6.18268 32.9959 5.89172 32.4435 5.51093 31.9767C5.12747 31.5111 4.65965 31.1411 4.15653 30.817C4.09395 30.7765 4.05586 30.7137 3.99328 30.6773L7.91527 19.3258L9.09019 18.1368L10.0394 19.2933L18.2151 29.2684L17.0458 30.4586ZM19.3221 28.1412L16.9477 25.2452L29.4182 12.5617C29.5786 12.3948 29.66 12.1695 29.66 11.9398C29.66 11.7427 29.5976 11.5399 29.4643 11.3804C29.1869 11.04 28.7109 11.0178 28.4062 11.3274L15.936 24.0117L15.4491 23.4144L13.5806 21.1302L26.0455 8.44738C26.2086 8.27926 26.2904 8.05518 26.2904 7.8249C26.2904 7.62774 26.2249 7.42558 26.0945 7.26486C25.8143 6.92626 25.3384 6.90522 25.0337 7.21306L12.5661 19.8992L10.1971 17.0055L24.9495 1.99286C27.0301 3.1801 28.8714 4.73706 30.4217 6.63794C31.9828 8.5403 33.2067 10.7221 34.0771 13.1277L19.3221 28.1412Z" fill="url(#paint0_linear)"/>
<path fill-rule="evenodd" clip-rule="evenodd" d="M35.6628 13.0667C34.7217 10.2529 33.3319 7.71034 31.5287 5.5081C29.7363 3.31954 27.5903 1.5465 25.1479 0.238497C24.8733 0.0925774 24.5442 0.144377 24.3185 0.377017L8.63062 16.3386L6.81914 18.1821C6.72126 18.2691 6.63694 18.3855 6.58525 18.5267C6.57722 18.5474 6.56897 18.5752 6.56068 18.5997L2.34233 30.8096L0.541891 36.0263C0.438509 36.3214 0.498376 36.6526 0.688826 36.8891C0.832785 37.0652 1.0342 37.1581 1.24077 37.1581C1.30885 37.1581 1.37957 37.149 1.44761 37.125L6.27243 35.6009L17.6196 32.0137C17.6903 31.9921 17.7611 31.9569 17.8263 31.9107C17.8616 31.8832 17.897 31.853 17.9295 31.8228L19.7818 29.9376L35.4669 13.9751C35.6926 13.7454 35.7689 13.3849 35.6628 13.0667ZM3.44118 32.273C3.47102 32.2949 3.50643 32.3079 3.53654 32.3254C3.85727 32.5501 4.15653 32.7981 4.40398 33.1042C4.65147 33.4067 4.84735 33.7595 5.0187 34.1339C5.03784 34.1677 5.04582 34.2097 5.05942 34.2473L2.47834 35.0646L3.44118 32.273ZM17.0458 30.4586L6.53902 33.7799C6.50911 33.7077 6.45749 33.6535 6.42486 33.5828C6.18268 32.9959 5.89172 32.4435 5.51093 31.9767C5.12747 31.5111 4.65965 31.1411 4.15653 30.817C4.09395 30.7765 4.05586 30.7137 3.99328 30.6773L7.91527 19.3258L9.09019 18.1368L10.0394 19.2933L18.2151 29.2684L17.0458 30.4586ZM19.3221 28.1412L16.9477 25.2452L29.4182 12.5617C29.5786 12.3948 29.66 12.1695 29.66 11.9398C29.66 11.7427 29.5976 11.5399 29.4643 11.3804C29.1869 11.04 28.7109 11.0178 28.4062 11.3274L15.936 24.0117L15.4491 23.4144L13.5806 21.1302L26.0455 8.44738C26.2086 8.27926 26.2904 8.05518 26.2904 7.8249C26.2904 7.62774 26.2249 7.42558 26.0945 7.26486C25.8143 6.92626 25.3384 6.90522 25.0337 7.21306L12.5661 19.8992L10.1971 17.0055L24.9495 1.99286C27.0301 3.1801 28.8714 4.73706 30.4217 6.63794C31.9828 8.5403 33.2067 10.7221 34.0771 13.1277L19.3221 28.1412Z" fill="#FF3B4A"/>
<defs>
<linearGradient id="paint0_linear" x1="17.2623" y1="-17.4628" x2="-18.019" y2="17.7974" gradientUnits="userSpaceOnUse">
<stop stop-color="white"/>
<stop offset="1" stop-color="white"/>
</linearGradient>
</defs>
</svg>
